<?xml version="1.0" standalone="no"?>
<!DOCTYPE svg PUBLIC "-//W3C//DTD SVG 20010904//EN"
 "http://www.w3.org/TR/2001/REC-SVG-20010904/DTD/svg10.dtd">
<svg version="1.0" xmlns="http://www.w3.org/2000/svg"
 width="572.000000pt" height="572.000000pt" viewBox="0 0 572.000000 572.000000"
 preserveAspectRatio="xMidYMid meet">
<metadata>
Created by potrace 1.11, written by Peter Selinger 2001-2013
</metadata>
<g transform="translate(0.000000,572.000000) scale(0.100000,-0.100000)"
fill="#000000" stroke="none">
<path d="M1553 5340 c-57 -13 -140 -61 -181 -104 -27 -27 -255 -412 -676
-1140 -591 -1023 -636 -1104 -647 -1168 -20 -114 -3 -178 93 -344 44 -76 250
-434 458 -794 689 -1194 730 -1264 773 -1308 23 -24 71 -57 107 -75 l65 -32
1315 0 1315 0 68 33 c36 18 85 52 108 75 29 29 235 377 665 1121 342 593 630
1097 640 1120 26 64 30 180 7 246 -10 30 -203 375 -429 765 -226 391 -507 877
-625 1080 -130 225 -231 389 -258 418 -26 28 -71 61 -110 80 l-66 32 -1295 2
c-712 0 -1310 -2 -1327 -7z m1602 -1148 c198 -399 278 -549 300 -567 17 -14
53 -31 80 -39 28 -8 289 -49 580 -90 292 -42 546 -81 566 -86 40 -11 54 -32
40 -58 -5 -9 -197 -199 -426 -422 -254 -246 -425 -420 -437 -444 -12 -24 -20
-58 -20 -90 0 -28 44 -301 97 -606 52 -305 93 -565 90 -577 -4 -16 -13 -23
-30 -23 -14 0 -258 122 -543 272 -498 261 -519 271 -582 276 -59 3 -71 1 -130
-31 -570 -301 -992 -517 -1013 -517 -19 0 -28 6 -32 23 -3 12 37 272 90 577
53 305 97 578 97 605 1 32 -7 65 -20 90 -12 25 -175 190 -441 448 -231 225
-423 417 -426 428 -9 27 10 47 49 54 17 2 267 39 556 80 289 41 544 80 568 85
24 6 62 23 84 38 39 25 57 58 306 562 145 294 269 541 275 548 33 41 44 22
322 -536z"/>
</g>
</svg>
